<mxfile host="app.diagrams.net" modified="2023-10-10T12:04:38.576Z" agent="Mozilla/5.0 (Windows NT 10.0; Win64; x64) AppleWebKit/537.36 (KHTML, like Gecko) Chrome/117.0.0.0 Safari/537.36" version="22.0.4" etag="MYwtz2xhqu-LbImA3QLE" type="github">
  <diagram name="Page-1" id="9-C-Q2NeXf0rUrjlXe5-">
    <mxGraphModel>
      <root>
        <mxCell id="0" />
        <mxCell id="1" parent="0" />
      </root>
    </mxGraphModel>
  </diagram>
</mxfile>
